<?xml version="1.0" standalone="no"?>
<!DOCTYPE svg PUBLIC "-//W3C//DTD SVG 20010904//EN"
 "http://www.w3.org/TR/2001/REC-SVG-20010904/DTD/svg10.dtd">
<svg version="1.0" xmlns="http://www.w3.org/2000/svg"
 width="96.000000pt" height="96.000000pt" viewBox="0 0 96.000000 96.000000"
 preserveAspectRatio="xMidYMid meet">

<g transform="translate(0.000000,96.000000) scale(0.100000,-0.100000)"
fill="#000000" stroke="none">
<path d="M309 485 c-38 -20 -50 -60 -47 -146 2 -58 6 -74 18 -74 11 0 16 13
18 48 l3 47 59 0 59 0 3 -47 c2 -35 7 -48 18 -48 20 0 26 135 9 177 -21 51
-87 72 -140 43z m91 -45 c32 -32 24 -40 -40 -40 -33 0 -60 4 -60 10 0 17 39
50 60 50 11 0 29 -9 40 -20z"/>
<path d="M504 487 c-2 -7 -3 -60 -2 -118 l3 -104 74 -3 c65 -3 77 0 97 19 26
24 32 67 12 87 -9 9 -9 15 0 24 19 19 14 63 -11 86 -19 18 -35 22 -95 22 -51
0 -74 -4 -78 -13z m146 -42 c21 -26 -5 -45 -61 -45 -48 0 -49 1 -49 30 0 29 1
30 49 30 31 0 53 -5 61 -15z m0 -100 c21 -26 -5 -45 -61 -45 -48 0 -49 1 -49
30 0 29 1 30 49 30 31 0 53 -5 61 -15z"/>
</g>
</svg>
