<?xml version="1.0" standalone="no"?>
<!DOCTYPE svg PUBLIC "-//W3C//DTD SVG 20010904//EN"
 "http://www.w3.org/TR/2001/REC-SVG-20010904/DTD/svg10.dtd">
<svg version="1.0" xmlns="http://www.w3.org/2000/svg"
 width="1920.000000pt" height="1920.000000pt" viewBox="0 0 1920.000000 1920.000000"
 preserveAspectRatio="xMidYMid meet">

<g transform="translate(0.000000,1920.000000) scale(0.100000,-0.100000)"
fill="#000000" stroke="none">
<path d="M0 9600 l0 -9600 9600 0 9600 0 0 9600 0 9600 -9600 0 -9600 0 0
-9600z m9150 0 c0 -3471 -3 -6310 -7 -6310 -24 0 -513 186 -747 285 -371 156
-870 400 -1181 577 l-130 73 -2 2360 -3 2360 -960 3 -960 2 0 -1625 c0 -947
-4 -1625 -9 -1625 -12 0 -233 230 -365 379 -971 1098 -1538 2324 -1686 3646
-6 58 -10 1019 -10 2701 l0 2611 48 6 c26 3 313 45 637 92 325 47 790 115
1035 150 245 35 648 94 895 129 248 36 776 113 1175 171 399 58 898 130 1110
161 212 31 547 80 745 109 198 29 372 53 388 54 l27 1 0 -6310z m1251 6260
c189 -27 594 -86 899 -130 305 -44 740 -107 965 -140 392 -57 951 -138 2240
-325 325 -47 775 -112 1000 -145 557 -80 557 -80 583 -86 l22 -4 0 -2423 c0
-1511 -4 -2484 -10 -2587 -59 -966 -329 -1853 -828 -2725 -883 -1544 -2486
-2875 -4467 -3710 -264 -111 -719 -285 -746 -285 -5 0 -9 2472 -9 6305 0 3468
1 6305 3 6305 2 0 158 -22 348 -50z"/>
<path d="M6850 13664 c-555 -78 -1696 -245 -1707 -249 -10 -3 -13 -253 -13
-1205 l0 -1200 975 2 975 3 0 1339 c0 737 -1 1340 -3 1341 -1 1 -103 -13 -227
-31z"/>
<path d="M12117 12353 l3 -1338 965 -3 965 -2 0 1200 c0 952 -3 1202 -12 1205
-7 2 -281 43 -608 90 -327 47 -749 108 -938 135 -189 28 -351 50 -360 50 -16
0 -17 -83 -15 -1337z"/>
<path d="M12118 8943 c-2 -5 -1 -574 2 -1266 l5 -1259 120 103 c163 139 559
537 681 684 341 411 581 793 765 1217 60 138 189 493 189 519 0 11 -1758 12
-1762 2z"/>
</g>
</svg>
